<?xml version="1.0" standalone="no"?>
<!DOCTYPE svg PUBLIC "-//W3C//DTD SVG 20010904//EN"
 "http://www.w3.org/TR/2001/REC-SVG-20010904/DTD/svg10.dtd">
<svg version="1.0" xmlns="http://www.w3.org/2000/svg"
 width="180.000000pt" height="180.000000pt" viewBox="0 0 180.000000 180.000000"
 preserveAspectRatio="xMidYMid meet">
<metadata>
Created by potrace 1.14, written by Peter Selinger 2001-2017
</metadata>
<g transform="translate(0.000000,180.000000) scale(0.100000,-0.100000)"
fill="#000000" stroke="none">
<path d="M1238 1673 c-6 -16 -11 -49 -12 -75 0 -27 -2 -48 -4 -48 -1 0 -29 13
-60 29 -97 49 -166 65 -282 65 -172 1 -308 -52 -425 -167 l-60 -59 -92 7 c-70
5 -93 3 -93 -6 0 -15 76 -86 100 -94 15 -5 12 -14 -24 -68 -54 -81 -87 -181
-93 -287 -6 -97 -15 -111 -80 -136 -59 -23 -53 -41 27 -82 36 -19 66 -35 68
-37 1 -1 -2 -24 -8 -50 -16 -71 -8 -82 36 -56 20 12 38 20 40 19 1 -2 14 -20
28 -41 36 -53 34 -90 -6 -118 -66 -46 -128 -101 -128 -115 0 -7 10 -23 22 -34
18 -17 34 -21 73 -19 32 2 71 -6 108 -19 69 -26 133 -28 159 -6 16 16 22 16
72 0 41 -13 59 -25 77 -54 27 -41 134 -102 180 -102 34 0 150 59 218 111 29
22 57 37 60 32 4 -4 20 -25 35 -46 36 -49 106 -101 119 -88 26 26 -22 129 -74
160 -31 19 -31 19 -9 31 19 10 30 8 74 -16 41 -23 64 -28 116 -28 36 0 76 6
90 13 31 16 70 52 70 63 0 4 -27 8 -60 8 -63 0 -66 3 -50 44 9 25 10 25 47 12
21 -7 61 -17 89 -20 41 -6 54 -4 74 12 21 17 23 23 13 45 -6 13 -30 38 -52 53
-22 16 -41 31 -41 34 0 3 10 10 22 15 33 15 33 33 1 52 l-29 16 31 47 c55 82
67 206 29 314 -13 36 -13 38 4 25 9 -8 23 -22 30 -31 38 -51 43 7 6 70 l-26
45 28 -7 c16 -4 50 -18 77 -31 44 -22 47 -23 47 -6 0 32 -168 91 -202 70 -9
-6 -5 -16 17 -39 l30 -32 -27 7 c-33 9 -33 9 -7 -91 32 -124 13 -236 -54 -308
-34 -37 -34 -44 4 -60 17 -7 27 -16 22 -19 -22 -14 -69 -10 -95 7 -31 20 -36
29 -13 20 27 -11 28 25 1 60 -14 19 -26 38 -26 41 0 3 11 21 25 39 31 41 55
108 55 156 0 61 -13 55 -27 -12 -9 -44 -25 -81 -54 -121 -41 -60 -42 -64 -12
-106 l17 -24 -31 17 c-43 22 -78 20 -94 -5 -13 -19 -16 -15 -49 67 -19 48 -40
89 -46 91 -6 2 -23 -26 -38 -61 -44 -104 -50 -103 -87 14 -18 56 -37 99 -43
97 -6 -2 -36 -63 -68 -137 -31 -73 -61 -137 -66 -142 -6 -6 -22 1 -41 17 -35
30 -62 28 -54 -4 7 -29 -6 -26 -60 10 -100 66 -188 206 -202 322 -10 83 -29
73 -23 -13 4 -58 1 -86 -22 -157 -30 -99 -40 -97 -48 9 -3 40 -9 67 -15 65
-10 -3 -67 -142 -67 -164 0 -6 -9 -15 -20 -18 -11 -4 -27 -18 -34 -33 l-15
-27 -18 42 c-19 45 -41 54 -63 28 -21 -25 -28 -17 -19 23 13 58 11 72 -11 72
-25 0 -100 37 -100 49 0 5 12 14 28 20 61 26 69 41 70 122 2 126 46 255 116
338 l36 43 -55 35 c-30 19 -55 36 -55 38 0 1 38 0 85 -3 78 -4 85 -3 86 14 0
25 93 102 168 143 73 38 195 71 268 71 86 0 202 -28 287 -70 43 -21 84 -36 92
-33 11 4 12 18 8 59 -4 30 -4 54 -1 54 3 0 29 -25 58 -55 28 -30 57 -55 64
-55 18 0 75 -60 96 -102 26 -51 38 -121 29 -164 -7 -29 -5 -34 11 -34 10 0 19
4 19 8 0 16 71 42 113 41 l42 0 -42 -19 c-51 -23 -58 -50 -13 -50 44 0 102
-33 138 -77 l31 -38 1 27 c0 21 -12 37 -51 68 -28 22 -55 40 -60 40 -21 0 3
19 31 25 76 17 -5 62 -94 52 -28 -3 -58 -8 -67 -12 -13 -5 -19 7 -32 59 -18
75 -52 133 -97 167 -75 57 -128 112 -145 149 -21 47 -32 50 -47 13z m-544
-1043 c44 -44 149 -110 175 -110 6 0 11 9 11 20 0 23 3 24 30 8 14 -9 25 -10
38 -3 30 18 62 7 62 -21 0 -34 40 -71 84 -79 27 -6 47 -2 83 16 41 20 48 29
51 57 2 17 7 32 13 32 5 0 9 7 9 15 0 12 -24 15 -138 17 l-138 3 45 107 46
108 26 -86 c15 -48 32 -91 38 -97 15 -15 43 13 76 79 32 63 31 64 70 -51 28
-83 29 -101 5 -212 l-11 -52 -74 -30 c-224 -94 -462 -103 -635 -25 -83 37
-114 75 -106 128 4 25 0 61 -9 90 -18 58 -19 114 -4 153 l12 28 7 -25 c13 -44
41 -91 52 -88 12 4 16 14 43 121 l18 68 37 -62 c20 -34 58 -83 84 -109z m706
-10 c23 -16 29 -29 32 -69 3 -43 1 -48 -14 -40 -9 5 -33 9 -52 9 -35 0 -36 1
-36 36 0 29 25 82 38 84 2 0 17 -9 32 -20z m-993 -63 c6 -29 11 -52 10 -53 -1
-1 -14 -4 -29 -8 -25 -6 -28 -4 -28 21 0 38 20 106 28 98 4 -4 12 -30 19 -58z
m1214 -91 c26 -25 28 -31 14 -39 -16 -9 -86 2 -138 22 -24 10 -27 15 -27 61
l0 51 60 -33 c33 -17 74 -45 91 -62z m-216 12 c26 -12 29 -20 16 -53 -7 -16
-17 -20 -60 -20 -52 0 -52 0 -47 29 3 16 6 35 6 42 0 17 49 19 85 2z m-987
-45 c-4 -47 -22 -53 -38 -12 -11 26 -11 32 1 40 29 18 40 10 37 -28z m-74 -16
l16 -38 -47 2 c-50 3 -65 -10 -43 -37 7 -8 10 -17 7 -20 -8 -8 -77 16 -77 27
0 7 123 110 126 106 1 -1 9 -19 18 -40z m1056 -56 c10 -15 48 -31 77 -32 l28
0 -25 -11 c-40 -17 -134 -12 -169 8 l-30 18 27 18 c27 19 79 18 92 -1z m-926
-26 c32 -29 36 -36 22 -41 -23 -9 -74 0 -122 22 l-39 18 40 5 c24 4 39 11 38
19 -5 22 21 12 61 -23z m750 -84 c23 -20 49 -71 41 -79 -7 -7 -95 84 -95 99 0
11 30 0 54 -20z m-144 15 c0 -12 -167 -106 -197 -112 -21 -4 -48 0 -75 11 -46
18 -108 61 -108 74 0 4 46 6 103 4 63 -3 131 1 177 10 89 17 100 18 100 13z"/>
<path d="M487 584 c-15 -15 -6 -24 32 -30 36 -6 40 -9 39 -37 -3 -87 155 -108
201 -26 8 15 11 36 8 51 -6 23 -13 27 -60 32 -121 12 -213 17 -220 10z"/>
<path d="M908 416 c-8 -18 -20 -26 -45 -28 -46 -4 -46 -22 0 -26 22 -2 41 -10
44 -18 3 -8 14 -14 24 -14 21 0 25 15 8 26 -7 4 -9 21 -5 45 7 44 -8 53 -26
15z"/>
</g>
</svg>
